# xmcd CD database file
#
# Track frame offsets:
#	150
#	20949
#	40471
#	60525
#
# Disc length: 969 seconds
#
# Revision: 0
# Processed by: cddbd v1.5.2PL0 Copyright (c) Steve Scherf et al.
# Submitted via: CDex 1.77
#
DISCID=3403c704
DTITLE=Fred Pieper - Big V. - The First Steps
DYEAR=1998
DGENRE=Jazz
TTITLE0=What's going on
TTITLE1=New York
TTITLE2=Spirit of Gospel
TTITLE3=Big V-Blues
EXTD=YEAR: 1998
EXTT0=
EXTT1=
EXTT2=
EXTT3=
PLAYORDER=
